<svg xmlns="http://www.w3.org/2000/svg" height="512" viewBox="0 0 24 24" width="512"><path d="M15.17 2.76A3.5 3.5 0 0012 .75c-1.77 0-3.22 1.3-3.46 3H8.5C7.26 3.75 6.25 4.76 6.25 6S7.26 8.25 8.5 8.25H15a2.748 2.748 0 00.17-5.49z" fill="#008bcc" data-original="#00BCD4" class="active-path" data-old_color="#00bcd4"/><path d="M8.75 14.75h-6.5a1.5 1.5 0 00-1.5 1.5v1.5h9.5v-1.5a1.5 1.5 0 00-1.5-1.5zM21.75 14.75h-6.5a1.5 1.5 0 00-1.5 1.5v1.5h9.5v-1.5a1.5 1.5 0 00-1.5-1.5z" fill="#e1006b" data-original="#607D8B" data-old_color="#607d8b"/><path d="M15 9H8.5c-1.654 0-3-1.346-3-3a3.006 3.006 0 012.425-2.945A4.265 4.265 0 0112 0a4.26 4.26 0 013.644 2.063A3.493 3.493 0 0118.5 5.5C18.5 7.43 16.93 9 15 9zm-3-7.5a2.756 2.756 0 00-2.718 2.355.749.749 0 01-.742.645C7.673 4.5 7 5.173 7 6s.673 1.5 1.5 1.5H15c1.103 0 2-.897 2-2a1.99 1.99 0 00-1.876-1.991.755.755 0 01-.639-.432A2.748 2.748 0 0012 1.5zM8.75 24h-6.5A2.253 2.253 0 010 21.75v-5.5C0 15.009 1.01 14 2.25 14h6.5C9.99 14 11 15.009 11 16.25v5.5C11 22.991 9.99 24 8.75 24zm-6.5-8.5a.75.75 0 00-.75.75v5.5c0 .414.337.75.75.75h6.5a.75.75 0 00.75-.75v-5.5a.75.75 0 00-.75-.75z" data-original="#000000" data-old_color="#000000" fill="#1d0033"/><path d="M10.25 18.485H.75a.75.75 0 010-1.5h9.5a.75.75 0 010 1.5zM21.75 24h-6.5A2.253 2.253 0 0113 21.75v-5.5c0-1.241 1.01-2.25 2.25-2.25h6.5c1.24 0 2.25 1.009 2.25 2.25v5.5c0 1.241-1.01 2.25-2.25 2.25zm-6.5-8.5a.75.75 0 00-.75.75v5.5c0 .414.337.75.75.75h6.5a.75.75 0 00.75-.75v-5.5a.75.75 0 00-.75-.75z" data-original="#000000" data-old_color="#000000" fill="#1d0033"/><path d="M23.25 18.485h-9.5a.75.75 0 010-1.5h9.5a.75.75 0 010 1.5zM19.25 14.75h-1.5v-2a.25.25 0 00-.25-.25h-11a.25.25 0 00-.25.25v2h-1.5v-2c0-.965.785-1.75 1.75-1.75h11c.965 0 1.75.785 1.75 1.75z" data-original="#000000" data-old_color="#000000" fill="#1d0033"/><path d="M11.25 8.5h1.5v3.25h-1.5z" data-original="#000000" data-old_color="#000000" fill="#1d0033"/></svg>