<svg version="1" xmlns="http://www.w3.org/2000/svg" width="933.333" height="933.333" viewBox="0 0 700.000000 700.000000"><path d="M331 1.5c-35.6 5.7-67.1 26.8-86.8 58-3.8 6.1-10 19.4-11.6 24.8-1.3 4.5-1.5 4.7-11.3 7.6-29.4 8.8-53.2 35.6-59.3 66.5-7.2 36.5 10.7 74.6 44.1 93.4 6.5 3.7 21.1 8.6 28.9 9.8 3 .4 24.9.8 48.7.8 23.7.1 43.4.4 43.8.8.3.3.7 13.4.7 29l.1 28.3-3.9.2c-2.2.1-35.4.2-73.9.3l-70 .1-6.9 2.4c-15.6 5.4-27.3 17.2-32.6 33-2.1 6.4-2.3 9.9-2.4 32.7V408l-2.6.1c-1.4 0-20.3.2-42 .3-36.1.3-40.1.5-46 2.3-24.1 7.4-42 26.7-46.8 50.3-.4 1.9-.7 44.4-.7 94.5v91l2.8 8.1c6.8 20.1 22.7 35.8 43.2 42.6l7 2.3h214l8-2.8c22.9-8.1 38.2-25.1 44.2-49.2.4-1.7.8-42.8.9-91.5.3-98.8.4-96-6.6-110.5-6.4-13.3-16.7-23.7-29.5-30-13.4-6.6-14.7-6.7-59.5-7.1-22.3-.1-41-.3-41.6-.3-.8-.1-1.1-5.8-1-19.6.1-18.8.2-19.5 2.4-21.7l2.2-2.2 163-.1h163l2.2 2.3c2.2 2.2 2.3 2.9 2.4 21.7.1 13.8-.2 19.5-1 19.6-.6 0-19.1.2-41.1.3-42.9.3-46 .6-57.2 5.6-20.2 9.1-34 26.8-38.2 49-.6 3.6-1 36-1 91.5 0 91.5 0 92.1 4.9 104.4 3 7.7 8.3 15.5 15 22.1 6 6 18.2 14 21.2 14 .9 0 1.9.4 2.2.8.3.5 3.1 1.5 6.3 2.3 4.8 1.2 23.6 1.4 111.8 1.4h106l8.1-2.8c22.1-7.6 38-25 43.5-47.7 1.7-7 1.9-13.7 1.9-95 0-73.9-.3-88.5-1.5-93.8-5-21.2-18.3-37.4-37.8-46.1-11.7-5.3-13.3-5.4-57-5.6-22.4-.1-41.1-.5-41.5-.9-.4-.4-.7-10.3-.8-22-.1-18.6-.4-22.1-2.2-28.2-5.4-17.6-20.3-31.5-38-35.3-3.7-.7-27.6-1.1-77.2-1.1h-72l-.1-8.3c0-8.2 0-48.8.1-49.7 0-.3 16.1-.5 35.8-.5 22.8 0 38.7-.4 44.1-1.2 36-5.2 66.2-28.9 80.5-63.3 6.8-16.5 9-41.2 5-57.8-.8-3.7-1.7-7.4-1.9-8.2-.8-3.8-5.8-15.8-8.7-20.9-10.4-18.6-27.6-34.7-46.2-43.1-5.9-2.7-16.2-6.2-21.7-7.4-1.7-.4-4.1-2.8-7.5-7.8-4.4-6.5-17.1-20.2-23.4-25.3C415 17 392 5.9 378 3.3c-1.4-.2-4.5-.9-7-1.5-7.2-1.6-30.5-1.8-40-.3zm-54 586.6c0 34-.4 50.3-1.1 53-1.6 5.3-5.8 10-11.4 12.8l-4.8 2.4h-99.1c-90.5 0-99.4-.2-103.1-1.7-5.4-2.3-9.3-6.2-11.8-11.5-1.9-4.3-2-6.6-1.9-53.5 0-27 .1-49.4.1-49.9.1-.4 52.5-.7 116.6-.7H277v49.1zm379.1-47.4c0 1 .1 23.4.1 49.8.1 52.7.2 51.6-6.1 58.7-6.5 7.4 0 7-110.6 7l-99 .1-4.8-2.3c-5.5-2.6-9.9-7.5-11.6-12.9-.7-2.7-1.1-19-1.1-53V539h116.5c110.3 0 116.5.1 116.6 1.7z"/></svg>